<?xml version="1.0" encoding="UTF-8"?>
<svg xmlns="http://www.w3.org/2000/svg" id="Layer_1" data-name="Layer 1" viewBox="0 0 24 24">
  <path d="m4,5c1.378,0,2.5-1.121,2.5-2.5S5.378,0,4,0,1.5,1.121,1.5,2.5s1.122,2.5,2.5,2.5Zm0-4c.827,0,1.5.673,1.5,1.5s-.673,1.5-1.5,1.5-1.5-.673-1.5-1.5.673-1.5,1.5-1.5Zm1.5,5h-3c-1.378,0-2.5,1.121-2.5,2.5v8.5h2v7h1v-7h2v7h1v-7h2v-8.5c0-1.379-1.122-2.5-2.5-2.5Zm1.5,10H1v-7.5c0-.827.673-1.5,1.5-1.5h3c.827,0,1.5.673,1.5,1.5v7.5ZM14,2.5h1v1h-1c-.551,0-1,.448-1,1v7h2v1h-2v7c0,.552.449,1,1,1h1v1h-1c-1.103,0-2-.897-2-2v-7h-2v-1h2v-7c0-1.103.897-2,2-2Zm7.039.894l2.177-2.178.707.707-2.177,2.178c-.266.266-.615.398-.965.398s-.698-.133-.964-.397l-1.17-1.171.707-.707,1.17,1.17c.142.141.374.141.516,0Zm2.961,1.281v.825c0,.827-.673,1.5-1.5,1.5h-4c-.827,0-1.5-.673-1.5-1.5V1.5c0-.827.673-1.5,1.5-1.5h3.104l-1,1h-2.104c-.276,0-.5.225-.5.5v4c0,.275.224.5.5.5h4c.18,0,.332-.101.42-.245l1.08-1.081Zm-2.961,7.219l2.177-2.178.707.707-2.177,2.178c-.266.266-.615.398-.965.398s-.698-.133-.964-.397l-1.17-1.171.707-.707,1.17,1.17c.142.141.374.141.516,0Zm1.881,2.362l1.08-1.081v.825c0,.827-.673,1.5-1.5,1.5h-4c-.827,0-1.5-.673-1.5-1.5v-4c0-.827.673-1.5,1.5-1.5h3.104l-1,1h-2.104c-.276,0-.5.225-.5.5v4c0,.275.224.5.5.5h4c.18,0,.332-.101.42-.245Zm-1.881,6.138l2.177-2.178.707.707-2.177,2.178c-.266.266-.615.398-.965.398s-.698-.133-.964-.397l-1.17-1.171.707-.707,1.17,1.17c.142.141.374.141.516,0Zm1.881,2.362l1.08-1.081v.825c0,.827-.673,1.5-1.5,1.5h-4c-.827,0-1.5-.673-1.5-1.5v-4c0-.827.673-1.5,1.5-1.5h3.104l-1,1h-2.104c-.276,0-.5.225-.5.5v4c0,.275.224.5.5.5h4c.18,0,.332-.101.42-.245Z"/>
</svg>
