<?xml version="1.0" encoding="UTF-8"?>
<svg xmlns="http://www.w3.org/2000/svg" id="Layer_1" data-name="Layer 1" viewBox="0 0 24 24">
  <path d="m5,22h9v-3s4.247,0,4.247,0c.5,0,.926-.373.991-.869l.68-5.131h1.99s-.465-1.06-.465-1.06c-1.075-2.465-2.21-5.043-3.244-6.322-1.939-2.591-4.989-3.894-8.199-3.549V.067c3.823-.341,7.448,1.235,9.776,4.323,1.195,1.494,2.329,4.065,3.5,6.751l.724,1.647v2.212s-2.33,0-2.33,0l-.449,3.393c-.195,1.486-1.474,2.607-2.974,2.607h-2.247v3s-13,0-13,0v-4s2,0,2,0v2ZM8,0v8H0V0h8Zm-.676,2.43l-1.398-1.43-2.543,2.631-1.496-1.581L.5,3.491l2.037,2.152c.455.478,1.216.481,1.675.007l3.113-3.221Zm.676,15.57H0S0,10,0,10H8s0,8,0,8Zm-2-6H2v4h4v-4Z"/>
</svg>
