<?xml version="1.0" encoding="UTF-8"?>
<svg xmlns="http://www.w3.org/2000/svg" id="Layer_1" data-name="Layer 1" viewBox="0 0 24 24">
  <path d="m21,12c0-.691-.084-1.39-.25-2.082l2.924-1.656-2.464-4.351-2.926,1.657c-1.063-1.04-2.359-1.795-3.784-2.207V0h-5v3.362c-1.425.412-2.72,1.167-3.784,2.207l-2.926-1.657L.326,8.262l2.924,1.656c-.166.692-.25,1.391-.25,2.082s.084,1.39.25,2.082l-2.924,1.655,2.464,4.352,2.926-1.657c1.064,1.04,2.359,1.796,3.784,2.207v3.362h5v-3.362c1.424-.411,2.72-1.167,3.784-2.207l2.926,1.657,2.464-4.352-2.924-1.655c.166-.692.25-1.39.25-2.082Zm1.311,4.114l-1.478,2.611-2.733-1.547-.269.287c-1.07,1.141-2.436,1.938-3.949,2.303l-.382.092v3.14h-3v-3.14l-.382-.092c-1.513-.366-2.879-1.162-3.949-2.303l-.269-.287-2.733,1.547-1.478-2.611,2.73-1.546-.107-.378c-.207-.727-.312-1.464-.312-2.19s.105-1.463.312-2.191l.107-.378-2.73-1.546,1.478-2.61,2.733,1.547.269-.287c1.069-1.141,2.435-1.937,3.949-2.303l.382-.092V1h3v3.14l.382.092c1.514.366,2.879,1.162,3.949,2.303l.269.287,2.733-1.547,1.478,2.61-2.73,1.546.107.378c.207.728.312,1.465.312,2.191s-.105,1.463-.312,2.19l-.107.378,2.73,1.546Zm-5.311-.805c-.283.426-.621.81-1,1.15v-1.46c0-.552-.448-1-1-1h-6c-.552,0-1,.448-1,1v1.46c-.379-.34-.717-.724-1-1.15,0,0,.01-.327.003-.337.015-1.09.904-1.972,1.997-1.972h6c1.094,0,1.982.882,1.997,1.972-.007.01.003.337.003.337Zm-5-3.31c1.654,0,3-1.346,3-3s-1.346-3-3-3-3,1.346-3,3,1.346,3,3,3Zm0-5c1.103,0,2,.897,2,2s-.897,2-2,2-2-.897-2-2,.897-2,2-2Z"/>
</svg>
