<?xml version="1.0" encoding="UTF-8"?>
<svg xmlns="http://www.w3.org/2000/svg" id="Layer_1" data-name="Layer 1" viewBox="0 0 24 24">
  <path d="m13.688.378c-1.01-.501-2.368-.499-3.377.002L2.027,4.5l3.973,1.977v2.523c0,3.309,2.691,6,6,6s6-2.691,6-6v-2.524l3-1.492v7.016h1v-7.5L13.688.378Zm3.312,8.622c0,2.757-2.243,5-5,5s-5-2.243-5-5v-2.026l3.312,1.648c.505.251,1.096.376,1.688.376s1.185-.126,1.689-.378l3.312-1.647v2.027Zm-3.757-1.274c-.73.365-1.752.364-2.486,0l-6.484-3.227,6.484-3.225c.732-.365,1.755-.363,2.487-.002l6.484,3.227-6.485,3.226Zm6.757,13.274v3h-1v-3c0-1.654-1.346-3-3-3h-.417l-3.568,4.281-3.568-4.281h-.446c-1.654,0-3,1.346-3,3v3h-1v-3c0-2.206,1.794-4,4-4h.915l3.1,3.719,3.099-3.719h.886c2.206,0,4,1.794,4,4Z"/>
</svg>
